<mxfile host="app.diagrams.net" agent="Mozilla/5.0 (Macintosh; Intel Mac OS X 10_15_7) AppleWebKit/537.36 (KHTML, like Gecko) Chrome/140.0.0.0 Safari/537.36" version="28.2.3">
  <diagram name="Page-1" id="jw3N9yRhb1LyVMOs5apz">
    <mxGraphModel dx="1394" dy="794" grid="1" gridSize="10" guides="1" tooltips="1" connect="1" arrows="1" fold="1" page="1" pageScale="1" pageWidth="1169" pageHeight="827" background="#D4E1F5" math="0" shadow="0">
      <root>
        <mxCell id="0" />
        <mxCell id="1" parent="0" />
        <mxCell id="eE21qvxGfpMZQyoSY6nR-1" value="Enterprise" style="rounded=1;whiteSpace=wrap;html=1;fontSize=27;shadow=1;glass=1;fillColor=#f5f5f5;fontColor=#333333;strokeColor=#666666;" parent="1" vertex="1">
          <mxGeometry x="24" y="40" width="1120" height="80" as="geometry" />
        </mxCell>
        <mxCell id="XiTJJ6IXv2kDjLfJbXqO-4" style="edgeStyle=orthogonalEdgeStyle;rounded=1;orthogonalLoop=1;jettySize=auto;html=1;entryX=0.5;entryY=0;entryDx=0;entryDy=0;curved=0;strokeWidth=2;exitX=0.25;exitY=1;exitDx=0;exitDy=0;" edge="1" parent="1" source="XiTJJ6IXv2kDjLfJbXqO-1" target="XiTJJ6IXv2kDjLfJbXqO-3">
          <mxGeometry relative="1" as="geometry" />
        </mxCell>
        <mxCell id="XiTJJ6IXv2kDjLfJbXqO-5" value="Capability Process Data" style="edgeLabel;html=1;align=center;verticalAlign=middle;resizable=0;points=[];fontSize=16;" vertex="1" connectable="0" parent="XiTJJ6IXv2kDjLfJbXqO-4">
          <mxGeometry x="-0.0012" y="-2" relative="1" as="geometry">
            <mxPoint x="4" y="-18" as="offset" />
          </mxGeometry>
        </mxCell>
        <mxCell id="XiTJJ6IXv2kDjLfJbXqO-30" style="edgeStyle=orthogonalEdgeStyle;shape=connector;rounded=1;orthogonalLoop=1;jettySize=auto;html=1;strokeColor=default;strokeWidth=2;align=center;verticalAlign=middle;fontFamily=Helvetica;fontSize=11;fontColor=default;labelBackgroundColor=default;endArrow=classic;flowAnimation=0;curved=0;startArrow=classic;startFill=1;" edge="1" parent="1" source="XiTJJ6IXv2kDjLfJbXqO-1" target="XiTJJ6IXv2kDjLfJbXqO-6">
          <mxGeometry relative="1" as="geometry" />
        </mxCell>
        <mxCell id="XiTJJ6IXv2kDjLfJbXqO-31" value="Business uses applications&lt;div&gt;to process or provide services&lt;/div&gt;" style="edgeLabel;html=1;align=center;verticalAlign=middle;resizable=0;points=[];fontFamily=Helvetica;fontSize=15;fontColor=default;labelBackgroundColor=default;" vertex="1" connectable="0" parent="XiTJJ6IXv2kDjLfJbXqO-30">
          <mxGeometry x="-0.2865" y="3" relative="1" as="geometry">
            <mxPoint as="offset" />
          </mxGeometry>
        </mxCell>
        <mxCell id="XiTJJ6IXv2kDjLfJbXqO-1" value="Business Capability" style="rounded=1;whiteSpace=wrap;html=1;fontSize=27;shadow=1;" vertex="1" parent="1">
          <mxGeometry x="130" y="200" width="880" height="60" as="geometry" />
        </mxCell>
        <mxCell id="XiTJJ6IXv2kDjLfJbXqO-2" value="Business" style="shape=umlActor;verticalLabelPosition=bottom;verticalAlign=top;html=1;outlineConnect=0;fontSize=15;" vertex="1" parent="1">
          <mxGeometry x="50" y="200" width="30" height="60" as="geometry" />
        </mxCell>
        <mxCell id="XiTJJ6IXv2kDjLfJbXqO-7" style="edgeStyle=orthogonalEdgeStyle;rounded=0;orthogonalLoop=1;jettySize=auto;html=1;entryX=0;entryY=0.5;entryDx=0;entryDy=0;strokeWidth=2;" edge="1" parent="1" source="XiTJJ6IXv2kDjLfJbXqO-3" target="XiTJJ6IXv2kDjLfJbXqO-6">
          <mxGeometry relative="1" as="geometry" />
        </mxCell>
        <mxCell id="XiTJJ6IXv2kDjLfJbXqO-8" value="Is Processed&amp;nbsp;&lt;span style=&quot;background-color: light-dark(#ffffff, var(--ge-dark-color, #121212)); color: light-dark(rgb(0, 0, 0), rgb(255, 255, 255));&quot;&gt;By&lt;/span&gt;" style="edgeLabel;html=1;align=center;verticalAlign=middle;resizable=0;points=[];fontSize=16;" vertex="1" connectable="0" parent="XiTJJ6IXv2kDjLfJbXqO-7">
          <mxGeometry x="-0.281" y="-1" relative="1" as="geometry">
            <mxPoint x="17" y="-27" as="offset" />
          </mxGeometry>
        </mxCell>
        <mxCell id="XiTJJ6IXv2kDjLfJbXqO-23" value="" style="edgeStyle=orthogonalEdgeStyle;shape=connector;rounded=1;orthogonalLoop=1;jettySize=auto;html=1;strokeColor=default;strokeWidth=2;align=center;verticalAlign=middle;fontFamily=Helvetica;fontSize=11;fontColor=default;labelBackgroundColor=default;endArrow=classic;curved=0;" edge="1" parent="1" source="XiTJJ6IXv2kDjLfJbXqO-3" target="XiTJJ6IXv2kDjLfJbXqO-21">
          <mxGeometry relative="1" as="geometry">
            <Array as="points">
              <mxPoint x="140" y="530" />
              <mxPoint x="65" y="530" />
            </Array>
          </mxGeometry>
        </mxCell>
        <mxCell id="XiTJJ6IXv2kDjLfJbXqO-28" value="&lt;font style=&quot;font-size: 15px;&quot;&gt;Data Model&lt;/font&gt;" style="edgeLabel;html=1;align=center;verticalAlign=middle;resizable=0;points=[];fontFamily=Helvetica;fontSize=11;fontColor=default;labelBackgroundColor=default;" vertex="1" connectable="0" parent="XiTJJ6IXv2kDjLfJbXqO-23">
          <mxGeometry x="0.0564" y="-3" relative="1" as="geometry">
            <mxPoint x="29" y="43" as="offset" />
          </mxGeometry>
        </mxCell>
        <mxCell id="XiTJJ6IXv2kDjLfJbXqO-26" value="" style="edgeStyle=orthogonalEdgeStyle;shape=connector;rounded=1;orthogonalLoop=1;jettySize=auto;html=1;strokeColor=default;strokeWidth=2;align=center;verticalAlign=middle;fontFamily=Helvetica;fontSize=11;fontColor=default;labelBackgroundColor=default;endArrow=classic;curved=0;" edge="1" parent="1" source="XiTJJ6IXv2kDjLfJbXqO-3" target="XiTJJ6IXv2kDjLfJbXqO-25">
          <mxGeometry relative="1" as="geometry">
            <Array as="points">
              <mxPoint x="140" y="530" />
              <mxPoint x="220" y="530" />
            </Array>
          </mxGeometry>
        </mxCell>
        <mxCell id="XiTJJ6IXv2kDjLfJbXqO-29" value="&lt;font style=&quot;font-size: 15px;&quot;&gt;Data Storage&lt;/font&gt;" style="edgeLabel;html=1;align=center;verticalAlign=middle;resizable=0;points=[];fontFamily=Helvetica;fontSize=11;fontColor=default;labelBackgroundColor=default;" vertex="1" connectable="0" parent="XiTJJ6IXv2kDjLfJbXqO-26">
          <mxGeometry x="0.0163" relative="1" as="geometry">
            <mxPoint x="73" y="50" as="offset" />
          </mxGeometry>
        </mxCell>
        <mxCell id="XiTJJ6IXv2kDjLfJbXqO-3" value="Data" style="rounded=1;whiteSpace=wrap;html=1;fontSize=25;strokeWidth=2;" vertex="1" parent="1">
          <mxGeometry x="40" y="400" width="200" height="80" as="geometry" />
        </mxCell>
        <mxCell id="XiTJJ6IXv2kDjLfJbXqO-10" style="edgeStyle=orthogonalEdgeStyle;shape=connector;rounded=0;orthogonalLoop=1;jettySize=auto;html=1;entryX=0;entryY=0.5;entryDx=0;entryDy=0;strokeColor=default;strokeWidth=2;align=center;verticalAlign=middle;fontFamily=Helvetica;fontSize=11;fontColor=default;labelBackgroundColor=default;endArrow=classic;" edge="1" parent="1" source="XiTJJ6IXv2kDjLfJbXqO-6" target="XiTJJ6IXv2kDjLfJbXqO-9">
          <mxGeometry relative="1" as="geometry" />
        </mxCell>
        <mxCell id="XiTJJ6IXv2kDjLfJbXqO-11" value="Is Realised By" style="edgeLabel;html=1;align=center;verticalAlign=middle;resizable=0;points=[];fontFamily=Helvetica;fontSize=16;fontColor=default;labelBackgroundColor=default;" vertex="1" connectable="0" parent="XiTJJ6IXv2kDjLfJbXqO-10">
          <mxGeometry x="0.3224" y="-2" relative="1" as="geometry">
            <mxPoint x="-36" y="-22" as="offset" />
          </mxGeometry>
        </mxCell>
        <mxCell id="XiTJJ6IXv2kDjLfJbXqO-33" value="" style="edgeStyle=orthogonalEdgeStyle;shape=connector;rounded=1;orthogonalLoop=1;jettySize=auto;html=1;strokeColor=default;strokeWidth=2;align=center;verticalAlign=middle;fontFamily=Helvetica;fontSize=11;fontColor=default;labelBackgroundColor=default;endArrow=classic;curved=0;" edge="1" parent="1" source="XiTJJ6IXv2kDjLfJbXqO-6" target="XiTJJ6IXv2kDjLfJbXqO-32">
          <mxGeometry relative="1" as="geometry" />
        </mxCell>
        <mxCell id="XiTJJ6IXv2kDjLfJbXqO-35" value="" style="edgeStyle=orthogonalEdgeStyle;shape=connector;rounded=1;orthogonalLoop=1;jettySize=auto;html=1;strokeColor=default;strokeWidth=2;align=center;verticalAlign=middle;fontFamily=Helvetica;fontSize=11;fontColor=default;labelBackgroundColor=default;endArrow=classic;curved=0;" edge="1" parent="1" source="XiTJJ6IXv2kDjLfJbXqO-6" target="XiTJJ6IXv2kDjLfJbXqO-34">
          <mxGeometry relative="1" as="geometry" />
        </mxCell>
        <mxCell id="XiTJJ6IXv2kDjLfJbXqO-6" value="Application" style="rounded=1;whiteSpace=wrap;html=1;fontSize=24;strokeWidth=2;" vertex="1" parent="1">
          <mxGeometry x="430" y="400" width="210" height="80" as="geometry" />
        </mxCell>
        <mxCell id="XiTJJ6IXv2kDjLfJbXqO-13" value="" style="edgeStyle=orthogonalEdgeStyle;shape=connector;rounded=1;orthogonalLoop=1;jettySize=auto;html=1;strokeColor=default;strokeWidth=2;align=center;verticalAlign=middle;fontFamily=Helvetica;fontSize=11;fontColor=default;labelBackgroundColor=default;endArrow=classic;exitX=0.5;exitY=1;exitDx=0;exitDy=0;curved=0;" edge="1" parent="1" source="XiTJJ6IXv2kDjLfJbXqO-9" target="XiTJJ6IXv2kDjLfJbXqO-12">
          <mxGeometry relative="1" as="geometry" />
        </mxCell>
        <mxCell id="XiTJJ6IXv2kDjLfJbXqO-16" style="edgeStyle=orthogonalEdgeStyle;shape=connector;rounded=1;orthogonalLoop=1;jettySize=auto;html=1;entryX=0.5;entryY=0;entryDx=0;entryDy=0;strokeColor=default;strokeWidth=2;align=center;verticalAlign=middle;fontFamily=Helvetica;fontSize=11;fontColor=default;labelBackgroundColor=default;endArrow=classic;curved=0;exitX=0.5;exitY=1;exitDx=0;exitDy=0;" edge="1" parent="1" source="XiTJJ6IXv2kDjLfJbXqO-9" target="XiTJJ6IXv2kDjLfJbXqO-15">
          <mxGeometry relative="1" as="geometry" />
        </mxCell>
        <mxCell id="XiTJJ6IXv2kDjLfJbXqO-17" style="edgeStyle=orthogonalEdgeStyle;shape=connector;rounded=1;orthogonalLoop=1;jettySize=auto;html=1;strokeColor=default;strokeWidth=2;align=center;verticalAlign=middle;fontFamily=Helvetica;fontSize=11;fontColor=default;labelBackgroundColor=default;endArrow=classic;curved=0;" edge="1" parent="1" source="XiTJJ6IXv2kDjLfJbXqO-9" target="XiTJJ6IXv2kDjLfJbXqO-14">
          <mxGeometry relative="1" as="geometry" />
        </mxCell>
        <mxCell id="XiTJJ6IXv2kDjLfJbXqO-18" value="Comprises Of" style="edgeLabel;html=1;align=center;verticalAlign=middle;resizable=0;points=[];fontFamily=Helvetica;fontSize=15;fontColor=default;labelBackgroundColor=default;" vertex="1" connectable="0" parent="XiTJJ6IXv2kDjLfJbXqO-17">
          <mxGeometry x="-0.6304" y="-3" relative="1" as="geometry">
            <mxPoint x="58" y="13" as="offset" />
          </mxGeometry>
        </mxCell>
        <mxCell id="XiTJJ6IXv2kDjLfJbXqO-19" style="edgeStyle=orthogonalEdgeStyle;shape=connector;rounded=1;orthogonalLoop=1;jettySize=auto;html=1;entryX=0.75;entryY=1;entryDx=0;entryDy=0;strokeColor=default;strokeWidth=2;align=center;verticalAlign=middle;fontFamily=Helvetica;fontSize=13;fontColor=default;labelBackgroundColor=default;endArrow=classic;curved=0;" edge="1" parent="1" source="XiTJJ6IXv2kDjLfJbXqO-9" target="XiTJJ6IXv2kDjLfJbXqO-1">
          <mxGeometry relative="1" as="geometry" />
        </mxCell>
        <mxCell id="XiTJJ6IXv2kDjLfJbXqO-20" value="&lt;font style=&quot;font-size: 16px;&quot;&gt;Supports&lt;/font&gt;" style="edgeLabel;html=1;align=center;verticalAlign=middle;resizable=0;points=[];fontFamily=Helvetica;fontSize=14;fontColor=default;labelBackgroundColor=default;" vertex="1" connectable="0" parent="XiTJJ6IXv2kDjLfJbXqO-19">
          <mxGeometry x="-0.1873" y="-3" relative="1" as="geometry">
            <mxPoint x="-50" y="-17" as="offset" />
          </mxGeometry>
        </mxCell>
        <mxCell id="XiTJJ6IXv2kDjLfJbXqO-9" value="Technology" style="rounded=1;whiteSpace=wrap;html=1;fontSize=24;strokeWidth=2;" vertex="1" parent="1">
          <mxGeometry x="830" y="400" width="210" height="80" as="geometry" />
        </mxCell>
        <mxCell id="XiTJJ6IXv2kDjLfJbXqO-37" style="edgeStyle=orthogonalEdgeStyle;shape=connector;rounded=1;orthogonalLoop=1;jettySize=auto;html=1;entryX=0.5;entryY=1;entryDx=0;entryDy=0;strokeColor=default;strokeWidth=2;align=center;verticalAlign=middle;fontFamily=Helvetica;fontSize=11;fontColor=default;labelBackgroundColor=default;endArrow=classic;exitX=0.5;exitY=1;exitDx=0;exitDy=0;curved=0;" edge="1" parent="1" source="XiTJJ6IXv2kDjLfJbXqO-12" target="XiTJJ6IXv2kDjLfJbXqO-14">
          <mxGeometry relative="1" as="geometry">
            <mxPoint x="830" y="760" as="sourcePoint" />
            <Array as="points">
              <mxPoint x="800" y="730" />
              <mxPoint x="950" y="730" />
            </Array>
          </mxGeometry>
        </mxCell>
        <mxCell id="XiTJJ6IXv2kDjLfJbXqO-38" value="Reslises" style="edgeLabel;html=1;align=center;verticalAlign=middle;resizable=0;points=[];fontFamily=Helvetica;fontSize=15;fontColor=default;labelBackgroundColor=default;" vertex="1" connectable="0" parent="XiTJJ6IXv2kDjLfJbXqO-37">
          <mxGeometry x="0.3354" y="-1" relative="1" as="geometry">
            <mxPoint x="-40" y="-21" as="offset" />
          </mxGeometry>
        </mxCell>
        <mxCell id="XiTJJ6IXv2kDjLfJbXqO-12" value="Network" style="rounded=1;whiteSpace=wrap;html=1;fontSize=19;strokeWidth=2;" vertex="1" parent="1">
          <mxGeometry x="750" y="610" width="100" height="60" as="geometry" />
        </mxCell>
        <mxCell id="XiTJJ6IXv2kDjLfJbXqO-40" style="edgeStyle=orthogonalEdgeStyle;shape=connector;rounded=1;orthogonalLoop=1;jettySize=auto;html=1;strokeColor=default;strokeWidth=2;align=center;verticalAlign=middle;fontFamily=Helvetica;fontSize=11;fontColor=default;labelBackgroundColor=default;endArrow=classic;entryX=0.25;entryY=1;entryDx=0;entryDy=0;curved=0;" edge="1" parent="1" source="XiTJJ6IXv2kDjLfJbXqO-14" target="XiTJJ6IXv2kDjLfJbXqO-25">
          <mxGeometry relative="1" as="geometry">
            <mxPoint x="470" y="750" as="targetPoint" />
            <Array as="points">
              <mxPoint x="1020" y="640" />
              <mxPoint x="1020" y="770" />
              <mxPoint x="195" y="770" />
            </Array>
          </mxGeometry>
        </mxCell>
        <mxCell id="XiTJJ6IXv2kDjLfJbXqO-41" value="Protects" style="edgeLabel;html=1;align=center;verticalAlign=middle;resizable=0;points=[];fontFamily=Helvetica;fontSize=15;fontColor=default;labelBackgroundColor=default;" vertex="1" connectable="0" parent="XiTJJ6IXv2kDjLfJbXqO-40">
          <mxGeometry x="-0.0092" y="-2" relative="1" as="geometry">
            <mxPoint x="3" y="-18" as="offset" />
          </mxGeometry>
        </mxCell>
        <mxCell id="XiTJJ6IXv2kDjLfJbXqO-14" value="Security" style="rounded=1;whiteSpace=wrap;html=1;fontSize=19;strokeWidth=2;" vertex="1" parent="1">
          <mxGeometry x="900" y="610" width="100" height="60" as="geometry" />
        </mxCell>
        <mxCell id="XiTJJ6IXv2kDjLfJbXqO-15" value="Tech Product" style="rounded=1;whiteSpace=wrap;html=1;fontSize=19;strokeWidth=2;" vertex="1" parent="1">
          <mxGeometry x="1050" y="610" width="100" height="60" as="geometry" />
        </mxCell>
        <mxCell id="XiTJJ6IXv2kDjLfJbXqO-21" value="Logical Data" style="whiteSpace=wrap;html=1;fontSize=19;rounded=1;strokeWidth=2;" vertex="1" parent="1">
          <mxGeometry x="5" y="610" width="120" height="60" as="geometry" />
        </mxCell>
        <mxCell id="XiTJJ6IXv2kDjLfJbXqO-25" value="Physical Data" style="whiteSpace=wrap;html=1;fontSize=19;rounded=1;strokeWidth=2;" vertex="1" parent="1">
          <mxGeometry x="160" y="610" width="140" height="60" as="geometry" />
        </mxCell>
        <mxCell id="XiTJJ6IXv2kDjLfJbXqO-36" style="edgeStyle=orthogonalEdgeStyle;shape=connector;rounded=1;orthogonalLoop=1;jettySize=auto;html=1;entryX=0.5;entryY=1;entryDx=0;entryDy=0;strokeColor=default;strokeWidth=2;align=center;verticalAlign=middle;fontFamily=Helvetica;fontSize=11;fontColor=default;labelBackgroundColor=default;endArrow=classic;exitX=0.5;exitY=1;exitDx=0;exitDy=0;curved=0;" edge="1" parent="1" source="XiTJJ6IXv2kDjLfJbXqO-32" target="XiTJJ6IXv2kDjLfJbXqO-25">
          <mxGeometry relative="1" as="geometry">
            <Array as="points">
              <mxPoint x="428" y="730" />
              <mxPoint x="230" y="730" />
            </Array>
          </mxGeometry>
        </mxCell>
        <mxCell id="XiTJJ6IXv2kDjLfJbXqO-39" value="CRUD" style="edgeLabel;html=1;align=center;verticalAlign=middle;resizable=0;points=[];fontFamily=Helvetica;fontSize=14;fontColor=default;labelBackgroundColor=default;" vertex="1" connectable="0" parent="XiTJJ6IXv2kDjLfJbXqO-36">
          <mxGeometry x="-0.0274" y="-3" relative="1" as="geometry">
            <mxPoint y="-17" as="offset" />
          </mxGeometry>
        </mxCell>
        <mxCell id="XiTJJ6IXv2kDjLfJbXqO-32" value="Integration" style="whiteSpace=wrap;html=1;fontSize=19;rounded=1;strokeWidth=2;" vertex="1" parent="1">
          <mxGeometry x="350" y="610" width="155" height="60" as="geometry" />
        </mxCell>
        <mxCell id="XiTJJ6IXv2kDjLfJbXqO-34" value="Functionality" style="whiteSpace=wrap;html=1;fontSize=19;rounded=1;strokeWidth=2;" vertex="1" parent="1">
          <mxGeometry x="550" y="610" width="140" height="60" as="geometry" />
        </mxCell>
      </root>
    </mxGraphModel>
  </diagram>
</mxfile>
